<?xml version="1.0" standalone="no"?>
<!DOCTYPE svg PUBLIC "-//W3C//DTD SVG 20010904//EN"
 "http://www.w3.org/TR/2001/REC-SVG-20010904/DTD/svg10.dtd">
<svg version="1.0" xmlns="http://www.w3.org/2000/svg"
 width="1536.000000pt" height="1536.000000pt" viewBox="0 0 1536.000000 1536.000000"
 preserveAspectRatio="xMidYMid meet">
<metadata>
Created by potrace 1.11, written by Peter Selinger 2001-2013
</metadata>
<g transform="translate(0.000000,1536.000000) scale(0.100000,-0.100000)"
fill="#000000" stroke="none">
<path d="M0 7680 l0 -7680 1203 0 1202 1 35 52 c19 28 81 100 138 158 100 104
104 107 165 119 84 17 104 30 37 24 l-55 -5 40 36 c58 54 211 168 360 270 104
70 299 208 445 313 34 25 720 202 782 202 10 0 17 -13 22 -38 12 -75 69 -235
85 -239 9 -2 33 -30 53 -61 79 -122 225 -271 249 -256 5 3 -9 28 -30 57 -68
91 -141 265 -114 274 8 3 10 31 6 97 -3 51 -3 109 1 128 l6 34 193 13 c310 20
551 54 634 91 37 16 44 24 54 64 8 33 16 46 29 46 10 0 32 3 51 7 l33 6 -32
-55 c-49 -88 -109 -237 -122 -303 -8 -40 -8 -77 -2 -110 7 -43 5 -57 -13 -95
-49 -100 -186 -596 -220 -793 l-6 -37 268 1 268 0 33 41 c35 43 41 68 17 68
-32 0 -10 56 90 220 75 123 264 402 284 418 96 76 163 189 206 352 34 126 63
452 67 733 l3 217 -41 0 c-36 0 -42 3 -46 25 l-5 25 116 0 c304 0 1005 102
1618 236 760 165 1294 331 1688 524 76 38 141 68 143 66 1 -2 -38 -133 -87
-290 -50 -157 -91 -288 -91 -291 0 -8 -226 -203 -325 -280 -261 -204 -727
-474 -1015 -590 -249 -100 -638 -216 -893 -265 -31 -6 -57 -15 -57 -20 0 -8
22 -64 173 -430 70 -170 92 -273 84 -395 -7 -110 -25 -172 -72 -246 l-35 -57
-63 -7 c-34 -3 -93 -17 -132 -30 l-70 -23 281 -1 281 -1 17 58 c26 93 46 249
46 357 0 80 -7 123 -31 215 -38 142 -49 278 -26 332 18 43 18 43 322 215 220
124 563 298 571 290 3 -2 7 -34 11 -69 7 -84 -20 -178 -77 -266 -50 -78 -51
-97 -5 -112 78 -26 155 -134 186 -260 20 -85 16 -268 -10 -375 -39 -160 -126
-305 -221 -368 -23 -15 25 -16 705 -16 l731 -1 104 167 c57 93 121 192 142
222 21 30 38 60 38 67 0 7 6 19 13 26 35 34 250 427 307 561 19 42 38 77 44
77 19 0 355 -93 561 -155 721 -218 1280 -458 1978 -849 l209 -116 914 0 914 0
0 7680 0 7680 -7680 0 -7680 0 0 -7680z m9538 5926 c10 -9 21 -16 24 -16 3 0
25 -18 49 -40 24 -21 45 -38 46 -36 2 2 18 -10 35 -26 55 -51 461 -363 470
-360 4 1 8 -2 8 -8 0 -9 153 -130 166 -130 4 0 12 -6 18 -14 6 -7 61 -51 121
-97 61 -46 115 -89 120 -95 6 -6 161 -125 345 -264 184 -139 348 -264 363
-277 l29 -23 -34 0 c-42 0 -1782 -107 -1943 -119 l-120 -10 135 5 c74 2 236 8
360 14 223 9 781 24 1390 35 l315 6 192 -144 c271 -205 371 -277 391 -284 9
-4 19 -9 22 -13 3 -3 20 -16 38 -29 18 -13 31 -25 28 -28 -5 -5 -208 46 -326
82 -86 27 -511 82 -920 120 -703 64 -1521 108 -2300 122 -201 4 -351 10 -335
14 45 11 249 36 440 53 225 21 259 25 145 20 -114 -5 -816 -57 -1610 -119
-107 -8 -242 -18 -300 -21 -126 -7 -136 -9 -121 -28 16 -20 -66 -41 -91 -23
-9 7 -90 69 -180 138 -564 435 -1172 795 -1723 1019 -187 75 -432 200 -414
210 8 4 86 24 174 44 88 21 194 46 235 56 291 73 481 109 835 155 302 39 435
53 765 80 274 21 431 29 975 49 50 2 557 2 1128 1 946 -2 1039 -4 1055 -19z
m282 -26 c6 -11 8 -20 6 -20 -3 0 -10 9 -16 20 -6 11 -8 20 -6 20 3 0 10 -9
16 -20z m-5481 -439 c75 -38 160 -83 189 -99 l54 -29 -59 -34 c-89 -50 -249
-159 -338 -230 -350 -278 -697 -785 -948 -1384 -81 -194 -209 -593 -236 -735
-69 -361 -85 -508 -80 -768 2 -100 1 -182 -2 -182 -10 0 -167 274 -246 430
l-78 155 -3 97 c-6 159 42 419 164 883 185 706 331 1150 472 1430 112 225 163
279 356 377 135 68 143 71 300 99 89 16 190 35 226 43 36 8 71 14 79 15 7 1
75 -30 150 -68z m387 -217 c1224 -684 2207 -1619 2876 -2734 96 -160 282 -499
277 -505 -3 -2 -63 2 -134 10 -319 33 -471 40 -910 40 l-450 -1 -430 -42
c-468 -46 -570 -58 -836 -102 -512 -86 -1111 -229 -1776 -426 -51 -15 -94 -26
-96 -23 -20 25 -201 317 -207 334 -5 13 -16 110 -26 216 -25 291 -9 596 46
904 118 648 421 1255 905 1805 163 186 594 589 631 590 7 0 65 -30 130 -66z
m1706 -1038 c104 -79 129 -106 97 -106 -10 0 -249 209 -249 218 0 3 8 -1 18
-9 9 -8 70 -55 134 -103z m3293 -1 c28 -2 104 -7 170 -10 66 -3 147 -7 180
-10 683 -53 1218 -128 1909 -267 l300 -60 60 -44 c230 -170 518 -436 706 -654
36 -41 67 -77 70 -80 3 -3 21 -25 40 -50 19 -25 38 -49 43 -55 151 -196 285
-438 352 -637 43 -128 61 -213 75 -351 10 -102 9 -129 -15 -356 -4 -43 -63
-430 -106 -695 -16 -104 -32 -207 -35 -230 -12 -86 -12 -88 -59 -351 -19 -110
-38 -218 -41 -240 -6 -44 -9 -56 -24 -130 -6 -27 -13 -63 -15 -80 -3 -16 -10
-56 -17 -87 l-11 -58 -81 0 c-45 0 -139 5 -211 10 -71 6 -218 17 -325 25 -310
25 -493 51 -548 79 -78 39 -148 54 -322 67 -113 9 -155 15 -132 20 18 4 35 8
37 10 4 4 -300 100 -523 164 -81 24 -149 40 -152 35 -3 -4 -38 2 -79 14 l-75
21 -46 81 c-185 321 -438 603 -960 1069 -254 226 -210 201 -580 333 -309 111
-418 144 -449 137 -27 -6 -30 -2 -81 87 -119 210 -338 518 -539 758 -328 393
-797 864 -1269 1274 -56 49 -100 91 -98 93 10 11 480 71 796 103 354 35 807
64 1160 74 140 4 832 -3 895 -9z m-2893 -316 c316 -263 737 -662 1000 -950
261 -286 526 -623 711 -902 53 -81 97 -148 97 -151 0 -2 -15 0 -32 4 -37 10
-375 73 -485 90 l-73 12 -88 176 c-330 657 -696 1178 -1174 1668 -76 77 -138
143 -138 147 0 5 18 12 42 16 3 0 66 -49 140 -110z m768 -2023 c226 -21 353
-40 500 -75 69 -16 285 -64 480 -106 419 -89 599 -141 990 -285 140 -51 156
-63 107 -79 -86 -29 -187 -115 -187 -160 0 -5 17 -31 37 -58 66 -86 114 -174
185 -337 94 -217 180 -438 244 -632 116 -351 132 -467 114 -829 -6 -126 -18
-289 -26 -362 -17 -158 -18 -264 -3 -318 13 -47 91 -130 132 -140 36 -9 71 14
96 63 11 21 46 128 80 237 151 502 190 578 395 772 175 166 331 220 706 243
332 21 702 5 930 -40 130 -26 500 -84 665 -104 72 -9 151 -19 178 -22 26 -3
47 -7 47 -9 0 -16 -33 -75 -43 -75 -36 1 -732 67 -794 75 -30 4 -46 13 -59 33
-22 34 -78 87 -70 67 22 -57 39 -216 39 -355 0 -178 -16 -259 -81 -395 -122
-255 -294 -475 -653 -840 -125 -126 -238 -243 -252 -260 -76 -92 -172 -273
-227 -425 -25 -69 -51 -107 -219 -317 -95 -120 -111 -135 -165 -159 -90 -40
-195 -43 -361 -10 -142 29 -243 71 -264 109 -6 12 -18 73 -25 135 -13 117 -21
136 -52 130 -16 -3 -19 -12 -16 -58 5 -78 28 -187 50 -229 36 -69 120 -117
292 -163 99 -27 294 -30 359 -5 24 10 45 16 47 15 5 -6 -68 -437 -97 -570 -52
-237 -119 -421 -203 -551 -49 -78 -181 -213 -279 -288 -207 -156 -485 -288
-892 -424 -496 -165 -1000 -296 -1500 -389 -760 -141 -1148 -180 -1597 -157
-127 6 -233 12 -234 14 -2 2 -11 54 -19 116 -19 131 -48 234 -79 276 -38 50
-47 88 -70 305 -27 246 -41 276 -137 304 -72 22 -263 41 -321 32 -64 -10 -89
-38 -186 -210 -68 -118 -235 -452 -268 -534 -9 -21 -14 -18 -125 76 -112 96
-572 536 -715 684 -230 238 -464 539 -529 680 -53 117 -68 199 -68 383 0 375
82 925 293 1969 60 296 117 587 125 645 26 173 19 557 -14 761 -11 65 -1 81
78 123 73 40 153 57 271 57 186 0 377 -46 690 -165 96 -37 188 -71 204 -76 79
-24 141 34 173 161 17 67 29 381 16 430 -7 27 -15 36 -35 38 -27 3 -29 1 -42
-60 -11 -48 -53 -87 -114 -104 -95 -28 -247 -8 -502 66 -178 51 -393 83 -570
84 -148 1 -157 0 -208 -25 -46 -23 -54 -25 -60 -11 -5 13 -6 13 -12 -2 -3 -10
-23 76 -43 191 -47 264 -64 391 -73 523 l-6 105 93 22 c52 13 279 74 506 137
226 63 486 129 578 147 l166 33 37 -19 c20 -10 40 -20 44 -22 3 -2 28 13 54
33 45 35 55 38 203 59 177 26 556 74 831 105 356 40 1106 48 1460 16z m-4307
-886 c132 -17 136 -18 162 -60 14 -22 62 -110 106 -196 52 -99 89 -158 101
-162 10 -2 18 -5 18 -7 0 -1 5 -26 10 -55 9 -48 7 -60 -17 -119 -23 -56 -27
-85 -31 -191 -2 -74 0 -142 7 -165 6 -21 9 -40 8 -42 -2 -1 -138 -14 -302 -27
-165 -14 -325 -28 -355 -31 -52 -5 -54 -5 -30 9 14 9 20 15 14 16 -14 0 -13
42 1 53 6 5 2 6 -8 3 -10 -3 -25 1 -33 9 -9 8 -11 15 -5 15 6 0 11 5 11 11 0
6 -8 8 -17 5 -10 -3 -25 -1 -33 4 -16 10 42 7 75 -5 16 -5 15 -3 -3 7 -12 8
-20 17 -17 20 3 3 -7 4 -22 1 -22 -3 -19 -1 10 11 50 18 53 23 26 31 -17 6
-19 9 -8 16 10 6 8 9 -9 9 -13 0 -20 4 -17 10 4 6 11 8 16 5 14 -9 11 2 -7 19
-8 9 -11 16 -5 16 6 0 11 5 11 11 0 6 -8 8 -17 5 -10 -3 -25 -1 -33 4 -16 10
42 7 75 -5 16 -5 15 -3 -3 7 -12 8 -20 17 -17 20 3 3 -7 4 -22 1 -22 -3 -19
-1 10 11 50 18 53 23 26 31 -17 6 -19 9 -8 16 10 6 8 9 -9 9 -13 0 -20 4 -17
10 4 6 11 8 16 5 14 -9 11 2 -7 19 -8 9 -11 16 -5 16 6 0 11 5 11 11 0 6 -8 8
-17 5 -10 -3 -25 -1 -33 4 -16 10 42 7 75 -5 16 -5 15 -3 -3 7 -12 8 -20 17
-17 20 3 3 -7 4 -22 1 -22 -3 -19 -1 10 11 50 18 53 23 26 31 -17 6 -19 9 -8
16 10 6 8 9 -9 9 -13 0 -20 4 -17 10 4 6 11 8 16 5 5 -3 6 1 3 9 -3 9 -10 16
-16 16 -5 0 -3 7 6 15 8 8 23 12 33 9 10 -3 7 2 -7 10 -24 15 -24 15 -3 16 12
0 25 5 29 12 4 7 3 8 -5 4 -6 -4 -19 1 -29 10 -16 17 -16 18 1 11 12 -4 25 -1
35 10 20 20 19 25 -5 34 -14 6 -11 8 12 9 30 2 30 2 5 10 -22 7 -22 8 -4 9 31
1 36 12 19 38 -9 13 -11 23 -5 23 5 0 10 -4 10 -10 0 -5 4 -10 9 -10 13 0 19
45 9 64 -7 12 -5 14 6 10 10 -4 14 2 12 20 0 14 -5 26 -10 26 -5 0 4 10 20 22
44 34 57 48 45 48 -6 0 -11 9 -11 19 0 11 -9 23 -21 26 -11 4 -18 9 -16 12 3
2 25 -5 49 -17 26 -13 35 -15 23 -5 -17 14 -18 17 -5 25 8 5 10 10 4 10 -6 0
-21 9 -33 19 -22 19 -22 19 39 15 34 -2 98 -8 143 -14z m-198 -102 c-9 -6 -19
-7 -22 -4 -4 3 -1 6 6 6 7 0 9 4 6 10 -4 6 1 7 11 3 15 -6 15 -7 -1 -15z m-45
-132 c0 -2 -7 -7 -16 -10 -8 -3 -12 -2 -9 4 6 10 25 14 25 6z m-23 -72 c-3 -3
-12 -4 -19 -1 -8 3 -5 6 6 6 11 1 17 -2 13 -5z m-78 -238 l24 -13 -29 -6 c-16
-3 -36 -1 -44 4 -11 7 -9 8 8 4 23 -7 32 9 10 18 -7 3 -8 6 -3 6 6 0 21 -6 34
-13z m0 -160 l24 -13 -29 -6 c-16 -3 -36 -1 -44 4 -11 7 -9 8 8 4 23 -7 32 9
10 18 -7 3 -8 6 -3 6 6 0 21 -6 34 -13z m8223 -197 c97 -26 235 -65 305 -86
l128 -38 -60 -8 c-33 -4 -99 -14 -147 -22 l-87 -15 -183 90 c-163 81 -195 102
-197 133 -1 11 27 5 241 -54z m-8223 37 l24 -13 -29 -6 c-16 -3 -36 -1 -44 4
-11 7 -9 8 8 4 23 -7 32 9 10 18 -7 3 -8 6 -3 6 6 0 21 -6 34 -13z m14 -133
c-7 -2 -19 -2 -25 0 -7 3 -2 5 12 5 14 0 19 -2 13 -5z m-2 -21 c-11 -4 -11 -6
0 -13 12 -7 11 -9 -1 -9 -8 1 -23 6 -32 14 -15 11 -14 13 15 13 18 0 26 -2 18
-5z m8129 -42 c60 -30 90 -50 80 -54 -8 -3 -46 -17 -85 -30 -38 -13 -88 -32
-109 -41 l-39 -16 7 33 c4 18 12 61 19 96 6 34 16 62 22 61 5 0 53 -22 105
-49z m-8165 12 c-3 -3 -11 0 -18 7 -9 10 -8 11 6 5 10 -3 15 -9 12 -12z m9695
-431 c80 -11 217 -27 305 -35 265 -27 265 -27 265 -40 0 -6 -4 -16 -9 -21 -10
-11 -120 -250 -124 -268 -1 -7 -5 -14 -9 -17 -4 -3 -70 -134 -147 -290 -149
-303 -169 -340 -188 -353 -7 -4 -13 -12 -13 -16 0 -9 -120 -131 -130 -131 -3
0 -22 -15 -42 -32 -19 -18 -37 -33 -39 -34 -12 -1 -145 -80 -151 -88 -4 -6 -8
-8 -8 -4 0 11 -60 -13 -60 -24 0 -5 -4 -7 -9 -3 -5 3 -12 1 -16 -5 -4 -6 -11
-8 -16 -5 -5 4 -9 2 -9 -4 0 -6 -7 -8 -15 -5 -8 4 -15 1 -15 -6 0 -6 -4 -9
-10 -5 -5 3 -26 -2 -47 -11 -21 -9 -42 -18 -48 -18 -39 -6 -114 -21 -197 -42
-53 -13 -100 -24 -103 -24 -4 0 4 15 17 33 71 93 267 380 347 507 117 186 253
459 286 574 29 102 33 230 11 334 -13 62 -13 63 8 58 12 -3 86 -14 166 -25z
m-8800 -40 c0 -85 -33 -286 -110 -662 -43 -215 -81 -393 -83 -395 -15 -16
-364 -169 -360 -158 2 7 12 15 21 17 10 2 1 2 -18 0 -33 -4 -34 -4 -15 11 19
14 18 14 -18 12 -30 -3 -35 -1 -26 10 6 8 8 14 3 14 -5 0 -2 5 6 10 12 8 11
10 -7 10 -12 0 -24 4 -27 9 -3 4 11 7 32 5 29 -2 33 0 19 7 -9 6 -22 7 -27 4
-5 -3 -7 1 -4 9 3 8 15 18 26 22 11 3 17 8 15 11 -3 2 -15 0 -26 -7 -15 -7
-27 -8 -39 -1 -10 7 -12 11 -4 11 7 0 10 4 7 10 -3 6 1 7 9 4 9 -4 16 -1 16 6
0 9 -10 11 -32 6 -25 -4 -29 -3 -18 5 12 9 13 12 1 16 -11 5 -11 7 0 14 12 8
11 11 -1 20 -11 8 -7 9 20 5 25 -4 31 -3 20 4 -8 5 -24 10 -35 10 -16 0 -17 2
-5 10 12 7 10 11 -10 20 -23 10 -22 10 10 5 32 -4 33 -3 17 9 -18 14 -18 14 0
20 10 3 6 4 -9 2 -16 -2 -28 -2 -28 0 0 2 12 15 27 30 l26 26 -24 -7 c-21 -7
-22 -6 -10 9 9 10 10 16 2 16 -13 0 -10 22 4 32 5 4 -2 12 -15 18 -23 10 -22
10 10 5 32 -4 33 -3 17 9 -18 14 -18 14 0 20 10 3 6 4 -9 2 -16 -2 -28 -2 -28
0 0 2 12 15 27 30 l26 26 -24 -7 c-22 -7 -23 -7 -9 10 14 17 13 18 -4 12 -16
-6 -17 -5 -6 8 7 8 9 15 4 15 -5 0 -2 5 6 10 13 8 11 11 -7 16 -21 6 -25 11
-22 30 0 4 -5 11 -13 15 -7 5 -8 9 -3 9 6 0 17 -5 25 -10 13 -9 13 -10 0 -10
-8 -1 -2 -8 13 -16 16 -9 32 -13 35 -9 3 3 -5 9 -18 12 l-25 7 25 7 c24 7 24
7 3 8 -25 1 -31 16 -10 25 6 3 2 3 -9 1 -14 -4 -24 0 -27 10 -4 9 -13 12 -24
8 -15 -5 -15 -3 2 10 11 9 27 16 35 17 13 0 13 -1 0 -10 -8 -5 -11 -12 -8 -16
4 -3 14 0 22 9 14 13 14 16 -2 22 -16 6 -16 7 1 20 18 13 17 14 -2 20 -23 7
-29 25 -8 26 6 0 2 5 -10 11 -13 6 -23 15 -23 21 0 5 -14 7 -32 3 l-32 -6 34
26 c34 26 35 26 8 22 -15 -3 -25 -1 -22 3 3 5 -1 9 -8 9 -9 0 -9 3 2 10 8 5
20 10 25 10 6 0 3 -5 -5 -10 -8 -5 -10 -10 -4 -10 6 0 17 7 24 15 11 13 9 15
-13 15 -13 0 -31 7 -38 17 -13 15 -12 15 8 5 12 -7 30 -11 40 -11 16 1 16 2
-1 6 -25 7 -51 32 -41 41 4 4 10 1 12 -5 5 -15 23 -17 23 -4 0 5 -9 12 -20 16
-19 6 -19 7 -2 24 9 10 24 21 32 24 10 4 7 6 -7 6 -13 1 -23 -3 -23 -8 0 -11
-31 -24 -39 -16 -3 3 0 10 7 14 7 4 14 22 14 39 1 18 1 32 2 32 1 0 170 38
376 84 206 46 378 85 383 85 4 1 7 -17 7 -38z m-770 -155 c0 -2 -7 -7 -16 -10
-8 -3 -12 -2 -9 4 6 10 25 14 25 6z m60 -275 l-24 -7 31 -13 c28 -11 30 -15
18 -27 -19 -19 -25 -18 -25 5 0 11 -9 23 -21 26 -17 6 -19 9 -8 16 8 5 23 8
34 8 16 -1 15 -2 -5 -8z m135 -789 c-6 -7 -34 11 -29 19 3 5 11 3 19 -4 7 -6
12 -13 10 -15z m8389 -794 c81 -59 89 -67 74 -85 -8 -11 -7 -12 8 -7 25 9 18
2 -30 -30 l-39 -26 34 5 c19 3 28 3 21 -1 -6 -3 -10 -9 -7 -13 2 -5 -8 -6 -23
-5 -15 2 -21 1 -14 -2 6 -3 10 -10 6 -15 -3 -5 3 -9 13 -9 15 0 16 -2 3 -10
-21 -14 -30 -12 -30 5 0 8 -5 15 -11 15 -5 0 -7 -5 -3 -11 5 -9 -2 -10 -22 -6
-16 3 -23 4 -15 0 11 -5 11 -7 0 -14 -11 -7 -11 -9 -1 -9 7 0 10 -4 7 -10 -3
-6 1 -7 9 -4 9 3 16 1 16 -5 0 -6 -8 -11 -17 -12 -14 0 -13 -2 5 -9 33 -14 27
-20 -10 -9 -18 5 -40 9 -48 8 -8 0 0 -5 18 -10 42 -13 41 -26 -5 -38 -27 -8
-39 -7 -44 1 -5 8 -12 7 -23 -5 -15 -14 -13 -15 26 -12 36 3 40 2 23 -7 -11
-7 -29 -13 -40 -14 -11 -1 -22 -3 -25 -3 -3 -1 2 -6 10 -11 12 -8 12 -10 -5
-10 -11 0 -26 -4 -33 -9 -8 -4 8 -7 39 -5 34 1 48 -1 38 -7 -8 -5 -22 -6 -31
-3 -10 3 -18 1 -18 -5 0 -6 5 -11 11 -11 8 0 8 -5 -1 -15 -7 -8 -18 -15 -24
-15 -6 0 -4 5 4 10 13 9 13 11 0 20 -8 5 -24 9 -35 8 -17 -1 -17 -1 3 -5 22
-4 22 -5 -7 -32 -29 -27 -36 -59 -16 -73 5 -4 0 -6 -13 -5 -12 0 -22 5 -22 9
0 4 -10 8 -22 8 -20 -1 -18 -4 12 -20 20 -11 28 -19 18 -20 -9 0 -25 -3 -35
-6 -15 -5 -15 -4 -3 5 8 5 11 13 8 17 -4 3 -14 -1 -22 -9 -12 -12 -13 -17 -3
-20 18 -7 -5 -40 -34 -48 l-24 -7 25 -2 c15 -1 2 -6 -29 -12 -38 -7 -50 -13
-40 -19 8 -5 12 -9 9 -9 -3 0 -23 -7 -45 -16 -35 -13 -36 -14 -9 -10 19 3 39
-1 50 -9 18 -13 18 -14 -2 -9 -12 3 -35 -1 -50 -10 -16 -8 -23 -15 -16 -16 18
0 15 -27 -4 -34 -22 -9 -32 3 -14 14 10 6 11 10 3 10 -7 0 -34 -21 -60 -47
-26 -27 -54 -47 -63 -45 -8 1 1 -7 20 -17 21 -12 28 -20 18 -21 -9 0 -25 -3
-35 -6 -15 -5 -15 -4 -3 5 8 5 11 13 8 17 -4 3 -14 -1 -23 -10 -9 -9 -12 -16
-6 -16 6 0 11 -7 11 -16 0 -25 -11 -15 -109 90 -83 90 -91 102 -86 130 31 170
21 149 150 313 76 96 127 152 139 152 10 1 61 37 113 81 52 44 100 80 106 80
7 0 53 20 102 45 50 24 96 45 104 45 7 0 45 -23 85 -52z m20 -223 c5 -13 2
-14 -17 -4 -32 17 -33 19 -10 19 12 0 23 -7 27 -15z m-94 -135 c12 -8 11 -10
-7 -10 -13 0 -23 5 -23 10 0 13 11 13 30 0z m-62 -101 c-7 -5 -21 -6 -30 -3
-10 3 -18 1 -18 -5 0 -6 6 -11 13 -11 6 0 4 -5 -6 -11 -10 -6 -21 -8 -24 -5
-4 3 0 6 8 6 12 0 11 2 -1 10 -20 13 0 27 41 27 19 0 25 -3 17 -8z m-101 -103
c0 -8 -6 -12 -15 -9 -11 5 -11 7 0 14 7 5 13 9 14 9 0 0 1 -6 1 -14z m-32 -36
c3 -5 1 -10 -4 -10 -6 0 -11 5 -11 10 0 6 2 10 4 10 3 0 8 -4 11 -10z m-72
-44 c8 -20 -1 -26 -37 -26 -24 0 -27 3 -16 10 8 5 24 7 35 5 11 -3 14 -2 8 1
-15 7 -17 24 -4 24 5 0 11 -6 14 -14z m-55 -65 c9 -5 2 -8 -20 -9 -23 -1 -28
2 -18 8 18 12 22 12 38 1z m-38 -61 c-19 -10 -43 -17 -52 -14 -10 3 -18 1 -18
-5 0 -6 6 -11 13 -11 19 0 -15 -20 -35 -20 -10 0 -18 5 -18 11 0 6 9 8 23 4
16 -5 18 -4 8 3 -12 9 -12 13 3 28 14 13 20 14 26 5 6 -10 13 -10 36 3 16 8
34 15 39 15 6 0 -6 -8 -25 -19z m-100 -60 c12 -8 11 -10 -7 -10 -13 0 -23 5
-23 10 0 13 11 13 30 0z m-25 -50 c-3 -5 -1 -10 6 -10 7 0 10 -2 7 -5 -3 -3
-13 -2 -22 1 -14 5 -15 9 -4 15 17 11 20 11 13 -1z m-499 -1276 c30 -31 68
-86 86 -121 29 -60 31 -68 25 -146 -7 -98 -52 -266 -148 -554 l-71 -213 -86
-67 c-134 -104 -235 -195 -381 -343 -131 -133 -401 -432 -401 -444 0 -4 -42
-57 -93 -119 -134 -161 -225 -277 -381 -487 -77 -102 -142 -188 -145 -193 -4
-4 3 34 16 85 67 263 21 523 -115 650 -26 25 -54 47 -62 50 -10 3 -6 17 17 59
70 121 90 249 58 355 -8 27 -15 52 -15 55 0 4 33 24 73 44 39 21 104 58 142
82 302 189 403 255 503 331 63 48 136 102 163 120 26 18 101 82 166 141 219
200 390 415 475 598 37 79 97 173 110 173 5 0 34 -25 64 -56z"/>
<path d="M9107 12083 c18 -2 50 -2 70 0 21 2 7 4 -32 4 -38 0 -55 -2 -38 -4z"/>
<path d="M8947 12073 c18 -2 50 -2 70 0 21 2 7 4 -32 4 -38 0 -55 -2 -38 -4z"/>
<path d="M5033 11785 c-319 -58 -571 -255 -666 -521 -58 -163 -76 -383 -43
-527 60 -260 215 -459 446 -573 l75 -37 35 19 c44 24 94 121 164 317 26 75 51
137 55 137 4 0 42 -51 83 -112 57 -84 182 -259 232 -324 1 -1 36 2 78 7 97 9
153 36 225 109 141 142 264 397 293 607 38 286 -123 626 -376 793 -156 103
-389 144 -601 105z m372 -90 c284 -74 494 -326 530 -636 20 -173 -66 -440
-198 -614 -50 -66 -140 -155 -157 -155 -32 0 -99 55 -132 107 -139 226 -208
312 -275 339 -50 21 -79 6 -125 -64 -52 -82 -69 -120 -123 -272 -26 -74 -51
-139 -55 -144 -14 -15 -104 46 -186 128 -130 130 -181 252 -191 461 -12 272
63 562 184 705 48 58 208 124 375 156 90 17 268 12 353 -11z"/>
<path d="M5136 11263 c-2 -3 9 -26 25 -51 35 -56 39 -117 10 -154 -11 -14 -47
-37 -81 -52 -34 -15 -59 -33 -57 -39 5 -16 100 -48 162 -54 63 -6 110 22 143
87 44 87 21 178 -57 224 -34 20 -136 48 -145 39z"/>
<path d="M7465 8334 c-22 -2 -92 -9 -155 -14 -206 -20 -601 -70 -780 -100
-245 -41 -370 -53 -469 -47 -119 8 -159 22 -204 70 -34 37 -40 40 -65 31 -32
-11 -32 -18 4 -179 29 -131 80 -244 137 -303 94 -98 103 -97 632 22 488 109
892 141 1283 101 411 -43 916 -201 1298 -406 93 -50 140 -61 150 -34 8 20 -22
154 -52 234 -67 178 -226 346 -420 444 -131 66 -368 130 -599 163 -113 16
-648 28 -760 18z"/>
<path d="M7250 7700 c-180 -15 -329 -73 -427 -164 -72 -66 -91 -99 -73 -121
22 -27 47 -16 112 48 123 124 271 171 528 170 179 -1 360 -29 578 -89 73 -20
139 -33 147 -30 21 8 19 43 -4 55 -25 14 -265 76 -366 95 -188 36 -359 48
-495 36z"/>
<path d="M4311 7574 c-68 -18 -177 -75 -230 -121 -49 -41 -56 -79 -16 -89 20
-5 37 3 78 34 182 137 352 146 616 33 79 -33 106 -33 117 1 9 29 -15 48 -112
88 -164 68 -328 88 -453 54z"/>
<path d="M7135 7416 c-123 -24 -353 -126 -375 -165 -10 -20 -4 -51 10 -51 4 0
63 27 131 59 68 33 152 67 185 75 97 25 381 20 608 -10 l50 -6 -30 -15 c-98
-50 -160 -124 -190 -227 -41 -146 39 -322 176 -386 50 -24 52 -24 178 -11 143
14 176 26 228 83 120 133 119 333 -1 461 -14 15 -21 27 -16 27 28 0 172 -53
211 -78 62 -39 164 -153 196 -219 25 -50 26 -57 14 -92 -7 -22 -9 -44 -6 -50
10 -16 36 -13 43 5 3 8 45 42 94 74 48 33 90 63 93 68 3 5 -15 23 -39 41 -24
17 -53 45 -65 61 -47 66 -314 209 -476 255 -289 81 -840 136 -1019 101z m912
-225 c46 -68 42 -140 -9 -167 -58 -30 -168 -17 -168 20 0 27 60 134 90 159 40
34 58 32 87 -12z m44 -241 c28 -16 24 -57 -10 -91 -37 -36 -52 -36 -89 0 -40
40 -46 67 -19 86 25 17 89 20 118 5z"/>
<path d="M4313 7325 c-88 -24 -129 -52 -221 -144 -48 -48 -103 -99 -122 -114
l-35 -26 32 -33 c18 -18 46 -41 62 -51 l30 -18 7 28 c4 15 12 35 19 43 7 8 21
38 31 65 51 138 215 212 418 190 l66 -7 -47 -31 c-52 -35 -106 -114 -124 -182
-15 -55 -6 -161 18 -216 64 -145 224 -218 348 -160 47 22 115 90 144 146 l21
40 -2 -73 c0 -39 2 -75 5 -78 4 -4 -21 -36 -54 -73 -34 -36 -85 -102 -114
-146 -147 -222 -209 -430 -208 -695 1 -149 17 -246 63 -370 l27 -77 -46 9
c-85 15 -153 41 -180 69 -51 51 -47 139 14 265 38 78 41 89 25 99 -32 20 -77
-35 -120 -146 -88 -222 -12 -328 256 -361 l95 -11 29 -42 c77 -112 192 -198
307 -230 92 -25 -4 -16 -177 16 -357 68 -527 34 -700 -142 -71 -71 -155 -195
-182 -267 -9 -24 -10 -37 -2 -50 20 -31 47 -24 109 28 146 124 313 161 560
125 117 -17 344 -65 441 -94 158 -46 264 -52 303 -17 10 9 31 42 47 74 26 51
29 67 29 150 0 88 -1 94 -25 112 -14 11 -38 22 -55 26 -28 7 -25 8 35 23 90
22 148 59 202 128 90 115 124 141 225 170 48 14 109 17 363 17 329 1 367 6
415 54 22 22 25 33 25 101 -1 162 -40 287 -117 371 -67 75 -106 42 -51 -42 38
-59 68 -126 92 -207 30 -101 16 -160 -43 -183 -14 -5 -143 -11 -288 -13 -453
-7 -527 -28 -662 -192 -28 -34 -70 -73 -94 -87 -153 -90 -418 -67 -590 51 -87
60 -189 238 -228 399 -29 115 -31 329 -5 449 59 271 159 460 335 636 103 103
219 185 337 237 120 52 186 65 354 71 150 6 155 7 158 28 4 29 -18 39 -104 48
-85 8 -243 -9 -337 -36 -93 -27 -247 -107 -332 -172 l-70 -54 3 221 c3 237 0
252 -48 287 -70 51 -550 97 -667 64z m608 -130 c36 -19 49 -50 49 -118 l-1
-52 -19 53 c-10 29 -33 70 -50 92 -34 43 -28 50 21 25z m-71 -47 c62 -102 12
-193 -95 -171 -27 5 -41 14 -43 27 -9 45 68 176 104 176 8 0 23 -14 34 -32z
m48 -251 c5 -38 -22 -77 -53 -77 -43 0 -89 88 -52 104 6 3 32 4 57 3 41 -2 45
-4 48 -30z"/>
<path d="M11211 7164 c-200 -44 -297 -156 -404 -470 -66 -191 -137 -469 -137
-534 0 -12 39 -36 134 -83 73 -37 145 -79 160 -93 36 -37 34 -92 -8 -218 -19
-56 -49 -146 -66 -201 -41 -125 -100 -244 -144 -288 -46 -46 -100 -58 -293
-65 -143 -4 -164 -7 -180 -24 -29 -32 -6 -52 68 -60 218 -25 295 -48 365 -109
25 -21 53 -39 61 -39 37 0 105 45 165 108 59 63 128 156 128 173 0 10 -29 39
-40 39 -5 0 -33 -33 -63 -72 -69 -93 -129 -148 -163 -148 -14 0 -40 11 -56 26
-17 14 -44 28 -60 31 -28 5 -26 7 28 29 32 13 74 40 96 60 69 69 163 298 234
572 37 146 42 197 19 229 -21 29 -112 83 -217 128 -49 21 -88 43 -88 50 0 28
93 381 122 463 16 48 50 125 74 172 86 166 137 213 264 246 79 20 277 22 580
4 187 -11 207 -14 228 -33 36 -33 62 -90 81 -180 18 -83 34 -106 66 -93 15 5
17 14 11 63 -6 48 -34 146 -61 207 -7 16 -5 17 22 12 36 -8 66 15 61 48 -4 26
-29 30 -348 51 -290 18 -552 18 -639 -1z"/>
<path d="M7515 5560 c-156 -41 -303 -115 -495 -250 -236 -165 -334 -204 -690
-269 -91 -17 -194 -39 -229 -48 -62 -17 -66 -20 -89 -67 -35 -71 -42 -195 -14
-258 32 -74 53 -82 183 -74 269 16 592 97 794 198 68 35 103 63 240 197 170
167 220 206 318 251 156 70 238 65 428 -25 75 -36 143 -65 151 -65 31 0 37 63
11 113 -29 58 -119 173 -161 205 -51 41 -147 88 -203 101 -66 16 -166 12 -244
-9z"/>
<path d="M7443 4868 c-4 -7 -19 -38 -34 -68 -95 -199 -322 -322 -692 -375
-256 -37 -820 -42 -1357 -14 -204 10 -487 36 -502 45 -5 3 -20 3 -34 0 -19 -5
-24 -13 -24 -36 0 -47 4 -48 325 -75 345 -29 728 -39 1085 -26 350 12 500 26
662 60 310 65 508 192 604 386 40 81 40 115 -1 115 -13 0 -27 -6 -32 -12z"/>
<path d="M5182 3998 c-17 -17 -15 -36 6 -42 49 -14 232 -47 347 -63 99 -13
201 -17 425 -18 307 0 345 5 338 43 -3 14 -36 16 -308 17 -315 2 -426 11 -653
55 -119 23 -139 24 -155 8z"/>
<path d="M3098 8523 c6 -2 18 -2 25 0 6 3 1 5 -13 5 -14 0 -19 -2 -12 -5z"/>
<path d="M3078 8503 c6 -2 18 -2 25 0 6 3 1 5 -13 5 -14 0 -19 -2 -12 -5z"/>
<path d="M3070 8480 c0 -5 5 -10 10 -10 6 0 10 5 10 10 0 6 -4 10 -10 10 -5 0
-10 -4 -10 -10z"/>
<path d="M2958 8183 c6 -2 18 -2 25 0 6 3 1 5 -13 5 -14 0 -19 -2 -12 -5z"/>
<path d="M2958 8023 c6 -2 18 -2 25 0 6 3 1 5 -13 5 -14 0 -19 -2 -12 -5z"/>
<path d="M2958 7863 c6 -2 18 -2 25 0 6 3 1 5 -13 5 -14 0 -19 -2 -12 -5z"/>
<path d="M2958 7703 c6 -2 18 -2 25 0 6 3 1 5 -13 5 -14 0 -19 -2 -12 -5z"/>
<path d="M3090 6766 c0 -9 30 -14 35 -6 4 6 -3 10 -14 10 -12 0 -21 -2 -21 -4z"/>
<path d="M3180 6140 c-8 -5 -10 -10 -5 -10 6 0 17 5 25 10 8 5 11 10 5 10 -5
0 -17 -5 -25 -10z"/>
<path d="M3230 5981 c0 -5 9 -7 20 -4 11 3 20 7 20 9 0 2 -9 4 -20 4 -11 0
-20 -4 -20 -9z"/>
<path d="M11670 5030 c0 -5 5 -10 10 -10 6 0 10 5 10 10 0 6 -4 10 -10 10 -5
0 -10 -4 -10 -10z"/>
<path d="M11570 4890 c0 -5 5 -10 10 -10 6 0 10 5 10 10 0 6 -4 10 -10 10 -5
0 -10 -4 -10 -10z"/>
<path d="M11542 4838 c17 -10 48 -10 48 0 0 5 -14 9 -30 9 -20 0 -26 -3 -18
-9z"/>
<path d="M11390 4640 c0 -5 5 -10 10 -10 6 0 10 5 10 10 0 6 -4 10 -10 10 -5
0 -10 -4 -10 -10z"/>
<path d="M11302 4561 c-11 -6 -10 -10 4 -15 9 -3 19 -4 22 -1 3 3 -1 5 -9 5
-11 0 -11 2 1 10 8 5 11 10 5 10 -5 0 -16 -4 -23 -9z"/>
<path d="M11145 4430 c-3 -6 1 -7 9 -4 18 7 21 14 7 14 -6 0 -13 -4 -16 -10z"/>
<path d="M8554 691 c-77 -47 -124 -141 -124 -246 0 -83 24 -149 74 -200 62
-65 114 -71 175 -20 61 52 114 221 81 260 -17 20 -44 5 -60 -35 -15 -37 -84
-80 -128 -80 -46 0 -40 18 22 72 57 50 116 150 116 195 0 63 -90 94 -156 54z"/>
<path d="M8385 10 c-4 -6 11 -10 37 -10 31 0 39 3 28 10 -20 13 -57 13 -65 0z"/>
</g>
</svg>
